<svg width="16" height="16" viewBox="0 0 16 16" fill="none" xmlns="http://www.w3.org/2000/svg">
<path fill-rule="evenodd" clip-rule="evenodd" d="M5.77778 5.22222C5.77778 4.63285 6.0119 4.06762 6.42865 3.65087C6.8454 3.23413 7.41063 3 8 3C8.58937 3 9.1546 3.23413 9.57135 3.65087C9.9881 4.06762 10.2222 4.63285 10.2222 5.22222C10.2222 5.81159 9.9881 6.37682 9.57135 6.79357C9.1546 7.21032 8.58937 7.44444 8 7.44444C7.41063 7.44444 6.8454 7.21032 6.42865 6.79357C6.0119 6.37682 5.77778 5.81159 5.77778 5.22222ZM5.77778 8.55556C5.04107 8.55556 4.33453 8.84821 3.81359 9.36915C3.29266 9.89008 3 10.5966 3 11.3333C3 11.7754 3.17559 12.1993 3.48816 12.5118C3.80072 12.8244 4.22464 13 4.66667 13H11.3333C11.7754 13 12.1993 12.8244 12.5118 12.5118C12.8244 12.1993 13 11.7754 13 11.3333C13 10.5966 12.7073 9.89008 12.1864 9.36915C11.6655 8.84821 10.9589 8.55556 10.2222 8.55556H5.77778Z" fill="#5E5F61"/>
</svg>
