<svg width="24" height="24" viewBox="0 0 24 24" fill="none" xmlns="http://www.w3.org/2000/svg">
<path d="M19.2603 3.7823L19.2602 3.78235L19.2664 3.78855C19.6629 4.18498 19.6585 4.81603 19.2695 5.19844L19.2695 5.19842L19.2664 5.20145L15.3764 9.09145L15.1805 9.28738L15.2428 9.55739L17.3008 18.4785L16.5668 19.2177L13.0032 12.3936L12.688 11.7899L12.2064 12.2714L8.30645 16.1714L8.12904 16.3488L8.16523 16.5971L8.48883 18.8174L8.06751 19.2348L6.62747 16.6329L6.55801 16.5074L6.43259 16.4378L3.81693 14.9865L4.23857 14.5569L6.4868 14.8896L6.73566 14.9264L6.91355 14.7486L10.7836 10.8786L11.2635 10.3986L10.6628 10.0825L3.83572 6.48979L4.57649 5.75423L13.4976 7.8122L13.7676 7.87449L13.9636 7.67855L17.8536 3.78855L17.8536 3.78861L17.8597 3.7823C18.2231 3.4059 18.8969 3.4059 19.2603 3.7823Z" fill="#2261BC" stroke="black"/>
</svg>
